<svg xmlns="http://www.w3.org/2000/svg" fill="none" viewBox="0 0 256 256" id="Unreal-Engine-Logo--Streamline-Logos" height="256" width="256">
  <desc>
    Unreal Engine Logo Streamline Icon: https://streamlinehq.com
  </desc>
  <path fill="#000000" fill-rule="evenodd" d="M128 245.33333333333331c64.8 0 117.33333333333333 -52.53333333333333 117.33333333333333 -117.33333333333333S192.79999999999998 10.666666666666666 128 10.666666666666666 10.666666666666666 63.199999999999996 10.666666666666666 128s52.53333333333333 117.33333333333333 117.33333333333333 117.33333333333333Zm-90.048 -100.43733333333333c7.658666666666666 -24.885333333333335 26.986666666666665 -73.17333333333333 77.54666666666665 -91.56266666666666v109.12c1.909333333333333 1.92 6.88 5.76 11.477333333333334 5.76 7.1466666666666665 0 17.226666666666667 -5.76 17.226666666666667 -5.76V93.54666666666665c5.92 -12.373333333333331 33.312 -34.474666666666664 51.70133333333334 -34.474666666666664 -11.136 12.842666666666666 -16.34133333333333 20.37333333333333 -22.976 34.464v68.928c7.658666666666666 1.92 22.976 0 34.45333333333333 -11.488 -9.28 21.119999999999997 -34.45333333333333 45.952 -45.94133333333333 45.952l-17.237333333333332 -11.488L126.976 202.66666666666666c-17.226666666666667 0 -45.952 -11.488 -57.44 -28.714666666666666h17.237333333333332v-65.81333333333333c-20.906666666666666 -2.8586666666666667 -30.474666666666668 10.378666666666666 -48.82133333333333 36.757333333333335Z" clip-rule="evenodd" stroke-width="10.6667"></path>
</svg>